<svg width="30" height="32" viewBox="0 0 30 32" fill="none" xmlns="http://www.w3.org/2000/svg">
<g id="building-store">
<path id="Vector" d="M8.4375 25.6682H21.5624C22.9432 25.6682 24.0624 24.4744 24.0624 23.0016V10.9123C24.0624 10.5316 23.9861 10.1553 23.8384 9.80878L23.1662 8.23116C22.7604 7.27918 21.8706 6.66797 20.8902 6.66797H9.10979C8.12943 6.66797 7.23955 7.27918 6.83388 8.23117L6.16159 9.80878C6.01391 10.1553 5.9375 10.5316 5.9375 10.9123V23.0016C5.9375 24.4744 7.0568 25.6682 8.4375 25.6682Z" stroke="black" stroke-width="1.5" stroke-linecap="round" stroke-linejoin="round"/>
<path id="Vector_2" d="M11.875 10.332C11.875 11.9889 10.625 13.6654 8.75 13.6654C6.875 13.6654 5.9375 11.9889 5.9375 10.332" stroke="black" stroke-width="1.5" stroke-linecap="round" stroke-linejoin="round"/>
<path id="Vector_3" d="M24.0625 10.332C24.0625 11.9889 23.125 13.6654 21.25 13.6654C19.375 13.6654 18.125 11.9889 18.125 10.332" stroke="black" stroke-width="1.5" stroke-linecap="round" stroke-linejoin="round"/>
<path id="Vector_4" d="M18.125 10.332C18.125 11.9889 16.875 13.6654 15 13.6654C13.125 13.6654 11.875 11.9889 11.875 10.332" stroke="black" stroke-width="1.5" stroke-linecap="round" stroke-linejoin="round"/>
<path id="Vector_5" d="M12.1875 20.9987C12.1875 19.5259 13.3068 18.332 14.6875 18.332H15.3125C16.6932 18.332 17.8125 19.5259 17.8125 20.9987V25.6654H12.1875V20.9987Z" stroke="black" stroke-width="1.5" stroke-linecap="round" stroke-linejoin="round"/>
</g>
</svg>
