<svg width="22" height="22" viewBox="0 0 22 22" fill="none" xmlns="http://www.w3.org/2000/svg">
<path id="Vector" d="M3.75862 21H15.4828C17.0063 21 18.2414 19.765 18.2414 18.2414V15.1716C18.2414 15.153 18.2564 15.1379 18.275 15.1379C19.78 15.1379 21 13.9179 21 12.413V12.3457C21 10.8407 19.78 9.62069 18.275 9.62069C18.2564 9.62069 18.2414 9.60563 18.2414 9.58705V6.51724C18.2414 4.9937 17.0063 3.75862 15.4828 3.75862H12.4199C12.3975 3.75862 12.3793 3.74046 12.3793 3.71806C12.3793 2.21691 11.1623 1 9.66124 1H9.58014C8.07898 1 6.86207 2.21691 6.86207 3.71806C6.86207 3.74046 6.8439 3.75862 6.8215 3.75862H3.75862C2.23508 3.75862 1 4.9937 1 6.51724V18.2414C1 19.765 2.23508 21 3.75862 21Z" stroke="black" stroke-width="1.5" stroke-linecap="round" stroke-linejoin="round"/>
</svg>
