<svg width="25" height="25" viewBox="0 0 25 25" fill="none" xmlns="http://www.w3.org/2000/svg">
<g id="wallet">
<path id="Vector" d="M19.9199 8.58203V17.582C19.9199 18.6866 19.0245 19.582 17.9199 19.582H7.41992C6.31535 19.582 5.41992 18.6866 5.41992 17.582V7.08203" stroke="#7E7D86" stroke-width="1.5" stroke-linecap="round" stroke-linejoin="round"/>
<path id="Vector_2" d="M17.1699 13.332C17.1699 13.6081 16.946 13.832 16.6699 13.832C16.3938 13.832 16.1699 13.6081 16.1699 13.332C16.1699 13.0559 16.3938 12.832 16.6699 12.832C16.946 12.832 17.1699 13.0559 17.1699 13.332Z" stroke="#7E7D86" stroke-linecap="round" stroke-linejoin="round"/>
<path id="Vector_3" d="M17.9199 8.58203H7.16992C6.20342 8.58203 5.41992 7.79853 5.41992 6.83203C5.41992 5.86553 6.20342 5.08203 7.16992 5.08203H15.9199C17.0245 5.08203 17.9199 5.97746 17.9199 7.08203V8.58203ZM17.9199 8.58203H19.9199" stroke="#7E7D86" stroke-width="1.5" stroke-linecap="round" stroke-linejoin="round"/>
</g>
</svg>
