<svg width="30" height="28" viewBox="0 0 30 28" fill="none" xmlns="http://www.w3.org/2000/svg">
<g id="wallet">
<path id="Vector" d="M24.0625 9.625V20.125C24.0625 21.4137 22.9432 22.4583 21.5625 22.4583H8.4375C7.05679 22.4583 5.9375 21.4137 5.9375 20.125V7.875" stroke="black" stroke-width="1.5" stroke-linecap="round" stroke-linejoin="round"/>
<path id="Vector_2" d="M20.625 15.1654C20.625 15.4875 20.3451 15.7487 20 15.7487C19.6549 15.7487 19.375 15.4875 19.375 15.1654C19.375 14.8432 19.6549 14.582 20 14.582C20.3451 14.582 20.625 14.8432 20.625 15.1654Z" stroke="black" stroke-linecap="round" stroke-linejoin="round"/>
<path id="Vector_3" d="M21.5625 9.6263H8.125C6.91688 9.6263 5.9375 8.71222 5.9375 7.58464C5.9375 6.45705 6.91688 5.54297 8.125 5.54297H19.0625C20.4432 5.54297 21.5625 6.58764 21.5625 7.8763V9.6263ZM21.5625 9.6263H24.0625" stroke="black" stroke-width="1.5" stroke-linecap="round" stroke-linejoin="round"/>
</g>
</svg>
